<svg width="69" height="24" viewBox="0 0 69 24" fill="none" xmlns="http://www.w3.org/2000/svg">
<path d="M39.3044 8.89562C39.6442 8.53156 40.0297 8.21294 40.4512 7.94768C41.7783 7.13845 43.1887 7.04366 44.6395 7.52111C45.421 7.77775 45.9216 8.37773 46.3019 9.08292C46.347 9.16731 46.3875 9.25401 46.4383 9.35574C46.4696 9.3349 46.4983 9.31045 46.5239 9.28291C47.473 7.92572 48.8071 7.29683 50.4336 7.25405C51.3954 7.22862 52.3457 7.33613 53.1792 7.87137C54.2878 8.58465 54.682 9.67597 54.6913 10.9349C54.6994 12.0042 54.4832 13.0539 54.3595 14.1117C54.1907 15.5706 53.9965 17.026 53.8139 18.4838C53.7676 18.8457 53.7191 19.2075 53.6821 19.5693C53.6659 19.7243 53.6243 19.8006 53.4393 19.8006C52.333 19.7913 51.2266 19.7936 50.1203 19.8006C49.9608 19.8006 49.9064 19.7728 49.9296 19.5959C50.1438 17.959 50.3523 16.3213 50.555 14.6828C50.6428 13.9891 50.7446 13.2955 50.8047 12.5961C50.8879 11.6366 50.4995 10.9777 49.7446 10.7326C48.5955 10.3546 47.3377 10.9742 46.8811 12.1406C46.6106 12.8343 46.5759 13.5649 46.4823 14.2863C46.2603 16.0095 46.0476 17.7339 45.8441 19.4595C45.8118 19.7381 45.717 19.8063 45.4395 19.8063C44.4106 19.7867 43.3818 19.7913 42.3517 19.8063C42.1205 19.8063 42.0454 19.7786 42.0789 19.5162C42.3725 17.27 42.6477 15.0215 42.9309 12.773C42.9749 12.439 42.9576 12.0997 42.88 11.7719C42.8046 11.4812 42.641 11.221 42.4116 11.0272C42.1822 10.8335 41.8983 10.7156 41.5991 10.6898C40.1252 10.5118 39.0362 11.3696 38.8073 12.9533C38.5657 14.6157 38.3749 16.285 38.1634 17.952C38.094 18.4954 38.0224 19.0376 37.9622 19.5809C37.9449 19.7381 37.9102 19.8121 37.7253 19.8063C36.6189 19.7948 35.5126 19.7959 34.4063 19.8063C34.2155 19.8063 34.1924 19.7578 34.2155 19.5751C34.5184 17.2041 34.8109 14.8354 35.1068 12.4597C35.2987 10.9256 35.4964 9.39272 35.6848 7.85866C35.7068 7.6841 35.7762 7.64364 35.9426 7.6448C36.953 7.65289 37.9634 7.6552 38.9726 7.6448C39.1842 7.6448 39.2316 7.72341 39.2374 7.90838C39.2478 8.21126 39.2778 8.52338 39.3044 8.89562Z" fill="white"/>
<path d="M7.70868 11.9939L10.0774 9.68186C10.7232 9.05066 11.3699 8.41908 12.0172 7.78711C12.0566 7.73966 12.1059 7.70141 12.1616 7.67505C12.2173 7.64868 12.2781 7.63485 12.3398 7.63452C13.7929 7.63452 15.2449 7.63452 16.698 7.63452C16.7403 7.6403 16.782 7.64918 16.8229 7.6611C16.6564 7.81948 16.5154 7.95589 16.372 8.08883C14.873 9.48379 13.3729 10.878 11.8716 12.2714C11.7201 12.4113 11.719 12.5026 11.8034 12.6829C12.907 14.9835 14.0049 17.2874 15.0969 19.5949L15.186 19.7868H14.912C13.6403 19.7868 12.3687 19.7868 11.097 19.7868C11.0235 19.7956 10.9492 19.7785 10.8869 19.7384C10.8247 19.6983 10.7784 19.6378 10.756 19.5672C10.119 18.2019 9.46701 16.8435 8.83004 15.4771C8.74333 15.291 8.69593 15.2401 8.526 15.4054C8.10751 15.8158 7.67285 16.2147 7.23818 16.6042C7.18828 16.648 7.14749 16.7011 7.11813 16.7606C7.08877 16.8201 7.07142 16.8848 7.06707 16.9511C6.96303 17.8192 6.84513 18.6851 6.74571 19.5521C6.7249 19.729 6.6775 19.7914 6.4856 19.7903C5.39892 19.7787 4.31108 19.7764 3.2244 19.7903C2.99319 19.7903 2.98626 19.7024 3.00822 19.5255C3.32266 17.0763 3.63479 14.6255 3.94461 12.1731C4.12958 10.7107 4.31455 9.24719 4.48796 7.78018C4.51108 7.58712 4.5735 7.52816 4.76887 7.52931C5.84784 7.53933 6.92681 7.53933 8.00578 7.52931C8.2208 7.52931 8.25665 7.58827 8.23006 7.78942C8.06474 9.02639 7.91215 10.2657 7.75608 11.5038C7.74221 11.6483 7.7318 11.7824 7.70868 11.9939Z" fill="white"/>
<path d="M25.4527 9.35366C25.64 9.11667 25.7996 8.88083 25.9961 8.66812C26.8446 7.71901 27.9405 7.4092 29.1706 7.47856C29.4769 7.49591 29.781 7.55255 30.0861 7.59417C30.2226 7.61151 30.2792 7.66584 30.2584 7.82538C30.1189 8.89125 29.986 9.95789 29.8596 11.0253C29.8376 11.2114 29.7174 11.1687 29.6099 11.171C28.9764 11.1825 28.3382 11.1397 27.7105 11.2473C26.1383 11.5166 25.1672 12.4588 24.8955 14.0344C24.7476 14.9038 24.6528 15.7824 24.5418 16.6575C24.4169 17.6286 24.3002 18.6008 24.1823 19.5719C24.1626 19.7384 24.1048 19.8031 23.9141 19.8031C22.8181 19.7915 21.7218 19.7915 20.6251 19.8031C20.4344 19.8031 20.4078 19.7511 20.4298 19.5719C20.6725 17.6783 20.906 15.7835 21.1442 13.8888C21.3684 12.1077 21.5931 10.327 21.8182 8.54674C21.8274 8.4716 21.839 8.3953 21.8505 8.31554C21.8817 8.1086 21.8447 7.8323 21.9661 7.71092C22.1037 7.56988 22.3846 7.66584 22.6031 7.66469C23.469 7.66469 24.3372 7.67161 25.1996 7.65658C25.4308 7.65658 25.4689 7.72132 25.4597 7.93288C25.44 8.39876 25.4527 8.86696 25.4527 9.35366Z" fill="white"/>
<path d="M17.7408 19.7929C17.1824 19.7929 16.6252 19.786 16.0669 19.7929C15.8923 19.7929 15.8611 19.7398 15.8819 19.5791C16.1401 17.5699 16.3944 15.5611 16.6449 13.5526C16.8761 11.6671 17.1246 9.7828 17.3535 7.89615C17.3778 7.69037 17.4368 7.6291 17.6483 7.63141C18.7157 7.64297 19.7831 7.64297 20.8505 7.63141C21.0933 7.63141 21.1222 7.69268 21.0933 7.92389C20.7292 10.7701 20.3812 13.6174 20.0263 16.4647C19.8968 17.5051 19.7558 18.5387 19.6321 19.5768C19.6113 19.7502 19.5546 19.7976 19.3847 19.7941C18.8367 19.786 18.2888 19.7929 17.7408 19.7929Z" fill="white"/>
<path d="M31.53 19.7924C31.0006 19.7924 30.4711 19.7785 29.944 19.7982C29.6954 19.8086 29.6422 19.7438 29.6746 19.4999C29.8677 18.0734 30.0445 16.6445 30.2237 15.2168C30.5073 12.9602 30.789 10.7036 31.0688 8.44703C31.0931 8.25628 31.1243 8.06668 31.1393 7.87594C31.152 7.70831 31.2017 7.63202 31.3983 7.63433C32.4942 7.64589 33.5947 7.64358 34.6872 7.63433C34.8664 7.63433 34.908 7.66669 34.8837 7.85859C34.5307 10.5992 34.1839 13.3413 33.8433 16.085C33.6988 17.241 33.5554 18.389 33.4225 19.5427C33.4005 19.7311 33.3462 19.8005 33.145 19.7947C32.6075 19.782 32.0688 19.7924 31.53 19.7924Z" fill="white"/>
<path d="M55.9849 9.29585C56.2567 8.18697 56.6948 7.12564 57.2843 6.14795C56.5754 6.04762 55.8729 5.90634 55.1803 5.72484C54.9237 5.65316 54.5757 5.66357 54.4405 5.46357C54.3052 5.26358 54.4959 4.97225 54.5433 4.72023C54.6982 3.89135 54.8693 3.06478 55.0289 2.23475C55.067 2.03244 55.1237 1.95384 55.363 2.02667C57.2825 2.6221 59.3216 2.72153 61.29 2.31568C61.4703 2.27869 61.5409 2.31568 61.6114 2.47868C62.0553 3.49908 62.5058 4.51639 62.9628 5.53062C63.0321 5.68553 63.0079 5.76184 62.8622 5.84623C61.5985 6.61628 60.5903 7.74232 59.964 9.08314C59.9178 9.17909 59.8981 9.29585 59.7328 9.29585C58.4947 9.29238 57.2554 9.29585 55.9849 9.29585Z" fill="#FFC700"/>
<path d="M56.3883 19.7924C55.8681 19.7924 55.3479 19.7762 54.83 19.7994C54.5803 19.8098 54.5248 19.7416 54.5572 19.5023C54.7086 18.389 54.8473 17.2746 54.9872 16.1602C55.193 14.5324 55.3965 12.904 55.5976 11.2747C55.6462 10.8828 55.6415 10.8828 56.0392 10.8828C57.0588 10.8828 58.0796 10.8828 59.0992 10.8828C59.3039 10.8828 59.3813 10.9059 59.3501 11.1487C59.0334 13.603 58.7328 16.0607 58.4253 18.5161C58.379 18.8861 58.3097 19.2526 58.2761 19.6225C58.2611 19.7751 58.1987 19.8017 58.0623 19.8005C57.5039 19.7878 56.9467 19.7924 56.3883 19.7924Z" fill="white"/>
</svg>
